<?xml version="1.0" encoding="UTF-8" standalone="no"?>
<!DOCTYPE svg PUBLIC "-//W3C//DTD SVG 1.1//EN" "http://www.w3.org/Graphics/SVG/1.1/DTD/svg11.dtd">
<svg width="100%" height="100%" viewBox="0 0 1920 1080" version="1.1" xmlns="http://www.w3.org/2000/svg" xmlns:xlink="http://www.w3.org/1999/xlink" xml:space="preserve" xmlns:serif="http://www.serif.com/" style="fill-rule:evenodd;clip-rule:evenodd;stroke-linecap:round;stroke-linejoin:round;stroke-miterlimit:10;">
  <g id="zone">
    <path d="M650.8,714.8l5.4,-3l-39,-99.6l-6,2.4l39.6,100.2" style="fill:none;fill-rule:nonzero;" />
    <path d="M761.2,734.6l5.4,-3.6l-34.2,-49.2l-6,3l34.8,49.8" style="fill:none;fill-rule:nonzero;" />
    <path d="M650.8,714.8l2.4,6l79.2,-39l-3.6,-5.4l-78,38.4" style="fill:none;fill-rule:nonzero;" />
    <path d="M587.8,102.2l-55.2,62.4l-81,90.6l141.6,365.4l191.4,-74.4l90.6,88.8l-137.4,121.2l-19.2,-20.4l-55.2,38.4l28.8,54.6l30.6,60l12,22.8l21.6,43.2l174.6,-90l81.6,-84l34.2,-34.2l344.4,-349.8l-3,-3l-0.6,0l3,-9.6l-0.6,-0.6l3,-9l3,0.6l4.2,1.2l6.6,2.4l0.6,0l24.6,-98.4l-4.2,3.6l-814.8,-210l-25.2,28.2l25.2,-28.2" style="fill:none;fill-rule:nonzero;" />
    <path d="M532.6,164.6" style="fill:none;fill-rule:nonzero;" />
    <path d="M587.8,102.2" style="fill:none;fill-rule:nonzero;" />
    <path d="M532.6,164.6" style="fill:none;fill-rule:nonzero;" />
    <path d="M593.2,620.6" style="fill:none;fill-rule:nonzero;" />
    <path d="M784.6,546.2" style="fill:none;fill-rule:nonzero;" />
    <path d="M875.2,635" style="fill:none;fill-rule:nonzero;" />
    <path d="M737.8,756.2" style="fill:none;fill-rule:nonzero;" />
    <path d="M718.6,735.8" style="fill:none;fill-rule:nonzero;" />
    <path d="M663.4,774.2" style="fill:none;fill-rule:nonzero;" />
    <path d="M692.2,828.8" style="fill:none;fill-rule:nonzero;" />
    <path d="M722.8,888.8" style="fill:none;fill-rule:nonzero;" />
    <path d="M734.8,911.6" style="fill:none;fill-rule:nonzero;" />
    <path d="M931,864.8" style="fill:none;fill-rule:nonzero;" />
    <path d="M1012.6,780.8" style="fill:none;fill-rule:nonzero;" />
    <path d="M1027.6,765.8" style="fill:none;fill-rule:nonzero;" />
    <path d="M1046.8,746.6" style="fill:none;fill-rule:nonzero;" />
    <path d="M613,74" style="fill:none;fill-rule:nonzero;" />
    <path d="M593.2,620.6l41.4,-16.2l31.8,81l67.8,-32.4l46.8,66l-33,29.4l-2.4,-3l-25.8,-36.6l-76.8,37.2l-49.8,-125.4" style="fill:none;fill-rule:nonzero;stroke:#ff0;stroke-width:1px;" />
    <path d="M547.6,189.2l-11.4,-28.8l-84.6,94.8l31.2,79.8l105.6,-40.8l-31.8,-82.2l-42.6,79.2l-16.2,-9l49.8,-93" style="fill:none;fill-rule:nonzero;stroke:#ff0;stroke-width:1px;" />
    <path d="M884.8,645.2l-10.2,-10.2l-125.4,112.2l30.6,45.6l6,-4.2l64.8,94.8l26.4,-13.2l-0.6,-1.8l2.4,-7.2l14.4,-7.8l11.4,3l15,-6.6l84,-84.6l-87,-88.8l-2.4,1.8l-31.8,33l-28.2,-27.6l10.2,-10.2l-4.2,-3.6l24.6,-24.6" style="fill:none;fill-rule:nonzero;stroke:#ff0;stroke-width:1px;" />
    <path d="M700,367.4l13.2,-4.8l56.3,135.9l260,240l-13.3,14.1l-9,-8.4l0,-0.6l-1.2,0l-15,8.4l-74.4,-75l6.6,-7.2l-31.8,-31.2l-6.6,6.6l-100.2,-98.4l-26.4,-30l-57.6,-149.4" style="fill:none;fill-rule:nonzero;stroke:#ff0;stroke-width:1px;" />
  </g>
</svg>